<svg width="641.37" height="1037.71" viewBox="0 0 641.37 1037.71" xmlns="http://www.w3.org/2000/svg" xmlns:xlink="http://www.w3.org/1999/xlink" xml:space="preserve" overflow="visible"><defs></defs><g><path d="M544.3 358.21C545.88 360.6 550.31 361.12 557.19 362.15 563.15 363.04 572.13 364.11 575.41 367.27 578.91 370.64 575.3 374.17 568.38 375.55 556.95 377.82 530.95 382.02 517.9 383.19 495.79 386.59 473.31 372.09 470.74 351.37 466.89 320.3 467.31 308.01 465.66 288.83 465.25 284.1 475.38 287.43 478.38 293.2 484.8 305.56 482.92 310.36 486.72 316.43 490.43 322.35 495.84 320.33 500.94 315.91 519.37 287.43 526.91 269.07 537.16 270.11 545.47 272.29 535.43 293.63 522.99 317.17 545.15 298.49 564.47 285.32 568.48 291.79 573.22 299.44 554.43 315.92 538.65 332.41 560.65 329.64 582.65 320.53 584.12 331.98 585.2 340.34 539.86 351.46 544.3 358.21Z" fill="#FFC19F"/><path d="M612.66 231.09C614.18 229.76 616.5 229.9 617.85 231.4 619.14 232.92 619.06 235.22 617.53 236.56L592.68 258.46C591.16 259.79 588.84 259.65 587.49 258.15L587.19 257.76C586.17 256.26 586.41 254.21 587.8 252.98L612.66 231.09ZM637.46 274.96C639.51 274.83 641.25 276.38 641.36 278.37 641.49 280.39 639.95 282.13 637.92 282.25L604.77 284.35C603.42 284.43 602.2 283.78 601.49 282.74 601.13 282.21 600.9 281.6 600.86 280.93 600.74 278.91 602.27 277.17 604.3 277.04L637.46 274.96ZM565.93 208.47C567.95 208.26 569.74 209.74 569.97 211.73L573.36 244.56C573.56 246.57 572.1 248.36 570.07 248.57 568.68 248.71 567.38 248.06 566.65 246.98 566.32 246.49 566.1 245.92 566.03 245.31L562.64 212.48C562.44 210.47 563.91 208.68 565.93 208.47Z" fill="#919191"/><path d="M128.73 629.79C132 627.54 138.81 618.18 149.2 604.66 112.79 586.06 110.7 557.42 115.46 546.73 127.07 520.61 165.66 494.69 201.33 469.15 191.71 464.4 160.76 460.74 140.53 465.57 102.38 474.67 66.6 517.68 68.43 548.46 70.36 581.01 87.33 611.39 128.73 629.79Z" fill="#FFC19F"/><ellipse cx="250.68" cy="1009.54" rx="201.4" ry="28.16" opacity="0.16"/><path d="M205.53 978.81C203.84 984.79 168.91 978.69 168.94 972.42 169.28 891.11 168.99 699.46 169.45 679.12L250.68 688.14C250.68 688.13 213.76 949.67 205.53 978.81Z" fill="#FFC19F"/><g><path d="M218.48 970.13C218.33 971.7 164.63 971.51 164.3 969.63 161.51 953.93 157.92 917.78 156.7 910.83L221.92 910.83C220.75 927.34 219.45 960.09 218.48 970.13Z" fill="#9DCECC"/><g><path d="M140.26 953.75C141.21 950.31 143.17 945.94 144.69 941.96 145.82 939 174.95 939.47 175.03 946.59 175.05 948.41 174.98 950.02 174.83 951.48 179.82 951.53 185.22 951.47 190.93 951.26 203.34 950.81 214.47 949.81 222.27 948.57 222.78 959.82 221.79 979.29 222.25 991.8 222.25 991.8 92.29 1015.98 71.81 997.25 66.02 991.96 98.65 968.51 140.26 953.75Z" fill="#2D8F91"/><path d="M222.12 983.95C222.12 986.73 222.15 989.41 222.23 991.79 222.23 991.79 92.27 1015.97 71.79 997.24 70.98 996.49 70.94 995.38 71.57 993.99 107.43 1001.73 189.81 989.36 222.12 983.95Z" fill="#19555B"/><path d="M131.16 957.39C130.17 957.58 129.21 956.99 128.99 956.01 128.77 955.04 129.39 954.07 130.37 953.85 137.92 952.22 146.71 955.69 151.76 962.34 152.36 963.14 152.21 964.27 151.4 964.87 151.09 965.1 150.73 965.22 150.37 965.23 149.8 965.25 149.22 965 148.85 964.51 144.64 958.96 137.36 956 131.16 957.39ZM121.17 961.96C120.18 962.14 119.27 961.36 119.16 960.37 119.04 959.38 119.76 958.48 120.76 958.37 128.72 957.44 136.57 960.41 142.33 966.45 143.02 967.17 142.99 968.32 142.26 969.01 141.93 969.32 141.5 969.49 141.08 969.5 140.58 969.52 140.07 969.33 139.69 968.93 132.89 961.8 125.17 961.5 121.17 961.96ZM110.19 963.4C117.36 962.16 126.58 965.44 132.66 971.34 133.38 972.04 133.39 973.18 132.69 973.9 132.35 974.25 131.91 974.43 131.46 974.44 130.98 974.46 130.49 974.29 130.12 973.93 124.83 968.79 116.86 965.84 110.81 966.97 109.79 967.16 108.88 966.48 108.71 965.49 108.54 964.5 109.2 963.57 110.19 963.4Z" fill="#D3DAE5"/></g></g><path d="M289.79 984.65C290.55 990.82 326 990.03 326.93 983.83 338.96 903.41 368.4 714 371.04 693.82L289.37 690.53C289.38 690.52 286.09 954.61 289.79 984.65Z" fill="#FFC19F"/><path d="M170.19 604.52C170.19 604.52 148.73 714.3 135.85 767.62 156.37 778.35 216.54 795.41 247.46 785.54 248.96 779.28 254.73 717.4 271.11 720.6 276.95 721.74 274.67 773.79 275.88 785.58 304.24 792.41 352.83 795.48 380.48 781.78 379.9 755.74 383.37 636.48 380.82 604.53L170.19 604.53Z" fill="#1B6168"/><path d="M381.83 649.48C372.71 625.58 363.81 605.82 363.81 605.82L170.25 610.48C170.04 610.9 169.72 611.51 169.48 611.98 168.29 623.12 159.33 646.22 156.33 673.83 233.09 701.06 341.99 703.02 381.62 682.36 381.74 671.1 381.83 659.93 381.83 649.48Z" opacity="0.23"/><g><path d="M281.15 970.2C281.23 971.77 334.88 974.01 335.3 972.15 338.81 956.59 344.03 920.89 345.56 914L280.43 910.57C280.85 927.11 280.64 960.13 281.15 970.2Z" fill="#9DCECC"/><g><path d="M360.04 957.37C359.25 953.89 357.49 949.44 356.16 945.39 355.17 942.38 326.05 941.54 325.64 948.64 325.53 950.46 325.54 952.07 325.62 953.53 320.64 953.35 315.24 953.05 309.55 952.59 297.17 951.58 286.1 950.08 278.36 948.49 277.34 959.7 277.44 979.2 276.41 991.67 276.41 991.67 405.13 1021.69 426.45 1003.9 432.46 998.89 400.93 973.99 360.04 957.37Z" fill="#2D8F91"/><path d="M276.88 983.85C276.75 986.63 276.6 989.3 276.41 991.68 276.41 991.68 405.13 1021.7 426.45 1003.91 427.3 1003.2 427.39 1002.09 426.82 1000.68 390.64 1006.78 308.91 990.71 276.88 983.85Z" fill="#19555B"/><path d="M350.95 967.75C350.56 968.23 349.97 968.45 349.4 968.4 349.04 968.37 348.69 968.24 348.39 967.99 347.62 967.35 347.51 966.21 348.15 965.44 353.5 959.02 362.44 955.95 369.91 957.92 370.88 958.18 371.46 959.17 371.19 960.14 370.93 961.1 369.94 961.66 368.96 961.42 362.83 959.75 355.43 962.38 350.95 967.75ZM359.93 972.57C359.54 972.94 359.02 973.11 358.52 973.07 358.09 973.04 357.68 972.85 357.36 972.53 356.66 971.81 356.68 970.66 357.41 969.97 363.43 964.19 371.42 961.58 379.32 962.87 380.31 963.03 380.98 963.96 380.83 964.94 380.67 965.92 379.72 966.66 378.74 966.43 374.76 965.79 367.04 965.75 359.93 972.57ZM391.02 970.52C390.81 971.49 389.86 972.13 388.85 971.9 382.86 970.51 374.76 973.09 369.24 977.99 368.85 978.33 368.36 978.48 367.88 978.44 367.43 978.4 366.99 978.2 366.67 977.84 366 977.09 366.07 975.95 366.82 975.29 373.16 969.68 382.52 966.82 389.63 968.38 390.62 968.58 391.24 969.55 391.02 970.52Z" fill="#D3DAE5"/></g></g><path d="M144.51 656.03C169.93 664.11 233.35 688.15 297.3 676.01 355.44 664.97 384.63 654.95 397.7 641.48 372.95 541.52 340.04 450.72 315.91 420.95 262.7 417.69 185 426.75 149.16 440.43 192.86 546.9 144.51 656.03 144.51 656.03Z" fill="#EF5A18"/><path d="M499.57 332.12C507 342.34 515.33 344.92 523.71 354.39 472.09 403.91 431.81 435.04 376.66 456.65 339.89 462.02 310.57 449.64 300.66 426.98 384.1 406.24 442.49 375.71 499.57 332.12Z" fill="#FFC19F"/><path d="M66.27 501.28C78.78 523.87 110.83 548.37 131.93 551.96 143.2 540.04 207.11 496.06 151.63 439.64 117.11 449.88 66.27 501.28 66.27 501.28Z" fill="#EF5A18"/><path d="M194.02 445.17 192.71 429.37C222.99 423.86 259.32 420.42 291.51 420.35L292.89 437.1C294.04 451.01 272.84 464.1 245.53 466.33 218.24 468.55 195.17 459.08 194.02 445.17Z" fill="#9E330D"/><path d="M201.48 390.33 205.54 439.44C206.41 450 223.93 457.19 244.65 455.5 265.38 453.81 281.47 443.87 280.6 433.31L276.54 384.2 201.48 390.33Z" fill="#E0956C"/><path d="M331 500.93C346.03 499.1 376.32 487.69 393.39 481.88 392.16 465.38 381.51 422.64 373.12 401.35 358.96 407.31 318.53 416.1 297.51 420.54 306.03 458.7 331 500.93 331 500.93Z" fill="#EF5A18"/><g><path d="M9.71 304.13C22.53 343.94 63.47 367.13 92.96 361.55 122.45 355.96 126.31 322.5 118.91 283.87 111.5 245.24 81.57 218.35 52.09 224.03 11.8 231.81-2.34 266.71 9.71 304.13Z" fill="#FFC19F"/><path d="M45.93 310.91C49.18 327.85 64 339.27 79.03 336.43 94.05 333.58 103.61 317.54 100.36 300.6 97.11 283.66 82.3 272.24 67.27 275.09 52.24 277.93 42.69 293.97 45.93 310.91Z" fill="#E0956C"/><path d="M450.4 282.32C441.62 323.2 403.21 350.32 373.31 347.68 343.41 345.03 336.22 312.12 339.72 272.95 343.23 233.78 370.33 204.07 400.23 206.81 441.09 210.56 458.65 243.9 450.4 282.32Z" fill="#FFC19F"/><path d="M412.85 292.75C411.31 309.92 397.71 322.75 382.47 321.41 367.23 320.06 356.12 305.04 357.66 287.87 359.2 270.7 372.8 257.87 388.04 259.21 403.28 260.56 414.39 275.58 412.85 292.75Z" fill="#E0956C"/><path d="M417.09 127C438.52 257.91 346.38 349.95 234.89 355.47 123.41 360.99 26.78 269.63 31.66 140.87 34.37 69.38 106.66 9.8 213.2 5.21 324.72 0.42 401.85 33.9 417.09 127Z" fill="#752912"/><path d="M381.65 101.84C392.85 123.56 395.98 319.81 374.57 348.25 351.86 378.42 255.11 411 234.48 412.03 212.38 413.12 115 393.02 94.72 362.1 70.73 325.51 52.16 151.71 58.17 130.61 78.5 59.36 139.72 53.96 219.95 49.99 295 46.28 352.58 45.5 381.65 101.84Z" fill="#FFC19F"/><path d="M370.85 298.24C371.97 306.37 361.51 314.51 347.48 316.42 333.46 318.33 321.18 313.28 320.06 305.15 318.94 297.02 329.41 288.88 343.43 286.97 357.45 285.07 369.73 290.11 370.85 298.24Z" fill="#FF9797"/><path d="M145.75 316.7C145.7 324.91 134.19 331.5 120.03 331.42 105.88 331.34 94.44 324.62 94.48 316.42 94.53 308.22 106.04 301.63 120.2 301.71 134.36 301.78 145.8 308.5 145.75 316.7Z" fill="#FF9797"/><path d="M242.9 286.12C242.02 286.17 241.2 285.57 241.01 284.68 239.63 278.37 234.37 274.51 227.6 274.85 220.8 275.19 215.83 279.63 215.24 285.91 215.14 286.92 214.24 287.66 213.24 287.56 212.22 287.47 211.48 286.58 211.58 285.57 212.33 277.52 218.85 271.61 227.42 271.18 235.95 270.76 242.86 275.86 244.62 283.89 244.84 284.88 244.21 285.86 243.21 286.07L242.9 286.12Z" fill="#C67F75"/><path d="M351.8 168.91C350.56 168.91 349.31 168.47 348.32 167.58 335.63 156.3 311.52 153.14 292.2 160.28 289.52 161.28 286.5 159.92 285.49 157.22 284.49 154.54 285.86 151.55 288.57 150.55 311.63 142.05 339.7 145.96 355.29 159.86 357.43 161.77 357.62 165.05 355.69 167.18 354.66 168.33 353.23 168.91 351.8 168.91Z" fill="#8C2F22"/><path d="M99.11 182.69C97.68 182.8 96.21 182.34 95.1 181.27 93.01 179.29 92.93 176.01 94.92 173.94 109.39 158.87 137.06 152.8 160.71 159.47 163.49 160.26 165.09 163.13 164.31 165.88 163.51 168.65 160.62 170.25 157.86 169.45 138.04 163.83 114.23 168.83 102.49 181.09 101.56 182.06 100.35 182.59 99.11 182.69Z" fill="#8C2F22"/><g><path d="M187.63 279.56C187.63 279.56 133.14 301.06 109.89 273.35 81.56 239.59 119.21 208.81 145.27 212.53 169.38 215.98 192.38 234.97 187.63 279.56Z" fill="#F9FEFF"/><path d="M102.56 228.28C111.99 214.67 125.59 209.66 140.75 210.12 156.25 210.6 172.59 220.38 177.77 231.27 168.62 219.23 154.03 215.59 145.02 214.31 130.66 212.24 112.55 219.83 105.09 233.11 98.45 244.92 100.26 261.83 110.66 274.23 98.82 266.13 92.73 242.47 102.56 228.28Z" fill="#773220"/><path d="M172.37 243.21C178.37 255.63 173.1 270.53 160.61 276.5 148.11 282.46 133.12 277.23 127.12 264.81 121.12 252.39 126.39 237.49 138.88 231.52 151.38 225.55 166.37 230.79 172.37 243.21Z" fill="#63190D"/><path d="M170.07 239.39C171.73 242.84 170.27 246.97 166.81 248.63 163.34 250.28 159.18 248.83 157.52 245.39 155.85 241.94 157.32 237.81 160.78 236.15 164.24 234.49 168.41 235.94 170.07 239.39Z" fill="#FEFFFE"/></g><g><path d="M271.81 274.02C271.81 274.02 328.76 287.89 347.96 257.27 371.36 219.96 329.81 194.61 304.52 201.86 281.1 208.56 260.95 230.5 271.81 274.02Z" fill="#F9FEFF"/><path d="M349 211.63C337.78 199.43 323.62 196.32 308.67 198.85 293.38 201.43 278.55 213.35 274.92 224.85 282.32 211.68 296.27 206.08 305.02 203.58 318.96 199.58 337.94 204.62 347.17 216.75 355.37 227.55 355.92 244.55 347.33 258.24 357.92 248.61 360.69 224.35 349 211.63Z" fill="#773220"/><path d="M327.24 233.12C333.24 245.54 327.97 260.44 315.48 266.41 302.98 272.37 287.99 267.14 281.99 254.72 275.99 242.3 281.26 227.4 293.75 221.43 306.25 215.47 321.24 220.7 327.24 233.12Z" fill="#63190D"/><path d="M324.94 229.3C326.6 232.75 325.14 236.88 321.68 238.53 318.21 240.19 314.05 238.73 312.39 235.29 310.73 231.84 312.19 227.71 315.65 226.06 319.12 224.4 323.28 225.85 324.94 229.3Z" fill="#FEFFFE"/></g><path d="M229.55 334.99 230.15 334.96C251.22 334.06 269.05 327.22 277.88 316.64 279.06 315.21 278.87 313.09 277.44 311.91 276.03 310.72 273.9 310.93 272.69 312.35 265.17 321.36 248.77 327.46 229.88 328.26L229.32 328.29C210.51 328.98 193.73 324.25 185.45 315.87 184.11 314.57 181.99 314.56 180.68 315.84 179.36 317.13 179.34 319.26 180.64 320.58 190.36 330.39 208.61 335.76 229.55 334.99Z" fill="#934341"/></g><g opacity="0.4"><path d="M151.54 636.81C153.36 631.16 155.35 624.38 157.3 616.67 179.13 627.97 211.84 639.44 271.79 636.06 333.43 632.49 369.19 616.87 388.49 606.01 390.33 612.75 392.13 619.57 393.9 626.44 374.21 636.86 341.81 649.96 291.23 655.06 285.39 655.65 279.29 656.14 272.95 656.48 211.03 659.99 175.5 648.65 151.54 636.81Z" fill="#FFFFFF"/><path d="M386.19 597.76C366.7 607.72 335.65 619.65 288.03 624.45 282.28 625.03 276.28 625.5 270.04 625.86 215.54 628.94 182.09 620.29 158.83 610.11 159.59 606.81 160.34 603.44 161.05 599.85 183.33 609.89 215.65 618.67 269.46 615.63 326.97 612.51 362.58 598.63 383.37 587.71 384.32 591.03 385.25 594.4 386.19 597.76Z" fill="#FFFFFF"/></g><path d="M200.82 581.76C194.16 584.26 179.38 581.99 172.5 585.49 172.5 585.49 172.11 585.81 171.9 586.08 186.75 585.74 199.53 590.91 211.47 593.01 216.44 608.79 194.19 600.33 171.59 598.91 185.15 601.78 193.9 605.31 203.27 606.85 210.83 612.97 208.08 618.1 198.65 617.53 191.36 617.09 178.49 614.09 165.32 612.96 164.2 613.37 192.99 622.7 196.14 628.68 195.53 631.99 190 634.58 181.18 631.74 176.41 630.2 171.36 627.5 160.53 625.45 151.51 627.21 144.1 633.04 140.59 634.76 127.21 639.43 118.75 621.45 118.31 617.54 117.17 607.37 133.64 586.25 144.56 581.48 162.85 573.49 171.83 568.99 202.81 573.44 208.44 576.29 204.07 580.54 200.82 581.76Z" fill="#FFC19F"/><path d="M458.33 193.24C433.87 186.87 417.73 172.78 412.99 134.08 426.42 129.94 432.59 125.35 445.41 119.8 392.99 111.25 394.12 37.08 324.48 12.18 211.08-19.93 113.68 19.42 86.31 38.77 35.88 74.43 32.98 116.81 33.24 164.02 29.6 207.12 21.27 220.51 0 232.1 24.39 236.94 37.92 229.52 45.25 220.57 45.22 247.5 33.59 257.04 20.94 270.07 58.23 268.73 76.7 246.44 81.03 218.97 85.85 188.46 70.87 145.94 74.54 133.83 76.66 126.83 97.7 85.6 107.92 84.41 130.21 81.81 161.53 157.61 240.52 149.45 207.09 134.98 187.54 112.08 166.94 78.82 173.46 81.99 180.08 85.96 186.72 90.9 256.66 142.96 317.8 152.22 373.16 142.53 380.39 199.6 367.52 230.67 439.91 246.27 432.82 238.89 421.4 215.84 418.39 197.1 426.35 201.12 440.55 204.03 458.33 193.24Z" fill="#752912"/></g></svg>